<?xml version="1.0" encoding="iso-8859-1"?>
<!-- Uploaded to: SVG Repo, www.svgrepo.com, Generator: SVG Repo Mixer Tools -->
<svg height="800px" width="800px" version="1.1" id="Layer_1" xmlns="http://www.w3.org/2000/svg" xmlns:xlink="http://www.w3.org/1999/xlink" 
	 viewBox="0 0 512.001 512.001" xml:space="preserve">
<g>
	<path style="fill:#2D527C;" d="M46.694,375.544C20.947,375.544,0,354.595,0,328.848V183.152c0-25.748,20.947-46.696,46.694-46.696
		s46.696,20.947,46.696,46.696v145.695C93.389,354.595,72.442,375.544,46.694,375.544z M46.694,167.233
		c-8.776,0-15.918,7.142-15.918,15.919v145.695c0,8.778,7.142,15.919,15.918,15.919c8.778,0,15.919-7.142,15.919-15.919V183.152
		C62.612,174.375,55.472,167.233,46.694,167.233z"/>
	<path style="fill:#2D527C;" d="M330.511,486.295c-5.147,0-10.304-1.216-15.087-3.664l-164.796-84.374
		c-7.565-3.875-10.556-13.146-6.685-20.711c3.875-7.565,13.149-10.555,20.711-6.685l164.796,84.374
		c0.632,0.326,1.246,0.543,2.319-0.115c1.608-0.983,3.485-3.616,3.485-7.8V64.68c0-4.186-1.877-6.819-3.485-7.8
		c-1.073-0.656-1.687-0.442-2.319-0.115L86.03,181.396c-7.563,3.875-16.835,0.882-20.711-6.685
		c-3.873-7.565-0.88-16.836,6.685-20.711L315.426,29.369c10.347-5.292,22.459-4.826,32.402,1.253
		c11.23,6.868,18.206,19.917,18.206,34.059v382.639c0,14.14-6.976,27.191-18.206,34.059
		C342.479,484.649,336.502,486.295,330.511,486.295z"/>
</g>
<path style="fill:#CEE8FA;" d="M238.019,86.289v339.423l84.419,43.223c13.305,6.812,28.207-4.606,28.207-21.615V64.68
	c0-17.009-14.901-28.427-28.207-21.614L238.019,86.289z"/>
<g>
	<path style="fill:#2D527C;" d="M330.514,486.323C330.513,486.323,330.514,486.323,330.514,486.323
		c-5.227,0-10.304-1.242-15.09-3.69l-84.419-43.223c-5.141-2.633-8.374-7.922-8.374-13.697V86.289
		c0-5.775,3.235-11.064,8.374-13.697l84.419-43.223c4.784-2.45,9.861-3.69,15.09-3.69c19.585,0,35.518,17.497,35.518,39.003v382.639
		c0,10.198-3.525,19.816-9.929,27.08C349.425,481.977,340.098,486.323,330.514,486.323z M253.408,416.303l76.045,38.934
		c0.408,0.209,0.754,0.309,1.062,0.309c0.729,0,1.687-0.572,2.501-1.496c0.837-0.949,2.241-3.087,2.241-6.731V64.68
		c0-5.323-3.132-8.227-4.741-8.227c-0.114,0-0.459,0-1.062,0.309l-76.045,38.934L253.408,416.303L253.408,416.303z"/>
	<path style="fill:#2D527C;" d="M412.437,313.476c-3.939,0-7.876-1.503-10.881-4.507c-6.009-6.009-6.009-15.753,0-21.764
		l84.174-84.174c6.011-6.008,15.752-6.008,21.764,0c6.009,6.009,6.009,15.753,0,21.764l-84.174,84.174
		C420.313,311.973,416.375,313.476,412.437,313.476z"/>
	<path style="fill:#2D527C;" d="M496.612,313.476c-3.939,0-7.876-1.503-10.881-4.507l-84.174-84.174
		c-6.009-6.009-6.009-15.753,0-21.764c6.011-6.008,15.752-6.008,21.764,0l84.174,84.174c6.009,6.009,6.009,15.753,0,21.764
		C504.487,311.973,500.55,313.476,496.612,313.476z"/>
</g>
</svg>