<?xml version="1.0" encoding="utf-8"?><!-- Uploaded to: SVG Repo, www.svgrepo.com, Generator: SVG Repo Mixer Tools -->
<svg width="800px" height="800px" viewBox="0 0 24 24" fill="none" xmlns="http://www.w3.org/2000/svg">
<path fill-rule="evenodd" clip-rule="evenodd" d="M13 3.7446C13 3.27314 12.8728 2.50021 12.1657 2.14424C11.4151 1.76635 10.7163 2.19354 10.3623 2.51158L4.94661 7.43717H3C1.89543 7.43717 1 8.3326 1 9.43717L1.00001 14.6248C1.00001 15.7293 1.89544 16.6248 3.00001 16.6248H4.95001L10.3623 21.4891C10.7175 21.8081 11.416 22.2331 12.1656 21.8554C12.8717 21.4998 13 20.7286 13 20.2561V3.7446ZM6.00618 9.17696L11 4.63507V19.3731L6.00179 14.881C5.81823 14.716 5.58015 14.6248 5.33334 14.6248H3.00001L3 9.43717H5.33334C5.58219 9.43717 5.82209 9.34439 6.00618 9.17696Z" fill="#000000"/>
<path d="M15.2929 8.29289C15.6834 7.90237 16.3166 7.90237 16.7071 8.29289L19 10.5858L21.2929 8.29289C21.6834 7.90237 22.3166 7.90237 22.7071 8.29289C23.0976 8.68342 23.0976 9.31658 22.7071 9.70711L20.4142 12L22.7071 14.2929C23.0976 14.6834 23.0976 15.3166 22.7071 15.7071C22.3166 16.0976 21.6834 16.0976 21.2929 15.7071L19 13.4142L16.7071 15.7071C16.3166 16.0976 15.6834 16.0976 15.2929 15.7071C14.9024 15.3166 14.9024 14.6834 15.2929 14.2929L17.5858 12L15.2929 9.70711C14.9024 9.31658 14.9024 8.68342 15.2929 8.29289Z" fill="#000000"/>
</svg>